<svg xmlns="http://www.w3.org/2000/svg" viewBox="0 0 84 24">
  <path d="M80.8657 6.7849V9.15527e-05H84V6.7849H80.8657ZM75.3493 6.7849V9.15527e-05H78.4836V6.7849H75.3493ZM59.5836 23.6625H63.5015V15.1225C63.5015 11.4769 65.3821 9.82288 67.0746 9.82288C68.7672 9.82288 69.8642 10.9706 69.8642 13.7385V23.6625H73.7821V12.8946C73.7821 8.94524 71.7761 6.44735 68.5164 6.44735C66.2284 6.44735 64.4731 7.73005 63.5015 10.5317V9.15527e-05H59.5836V23.6625ZM0 23.6625H14.8881V20.287H9.40299V9.15527e-05H6.14328C6.01791 2.83553 5.26567 3.5444 1.66119 3.5444H0V6.7849H5.48507V20.287H0V23.6625ZM49.6164 9.82288C51.5597 9.82288 53.0955 11.4769 53.2836 13.8398H57.3269C56.7627 9.3503 53.691 6.44735 49.6164 6.44735C45.197 6.44735 41.6866 10.1267 41.6866 15.2237C41.6866 20.3208 45.197 24.0001 49.6164 24.0001C53.691 24.0001 56.7627 21.1309 57.3269 16.6414H53.2836C53.0955 19.0043 51.5597 20.6246 49.6164 20.6246C47.6731 20.6246 45.6985 18.768 45.6985 15.2237C45.6985 11.6794 47.6105 9.82288 49.6164 9.82288ZM25.0746 23.6625H28.9925V15.1225C28.9925 11.4769 30.8731 9.82288 32.5657 9.82288C34.2582 9.82288 35.3552 10.9706 35.3552 13.7385V23.6625H39.2731V12.8946C39.2731 8.94524 37.2672 6.44735 34.0075 6.44735C31.7194 6.44735 29.9642 7.73005 28.9925 10.5317V6.7849H25.0746V23.6625ZM17.2388 9.15527e-05V4.2195H21.1567V9.15527e-05H17.2388ZM17.2388 6.7849V23.6625H21.1567V6.7849H17.2388Z" fill="white"/>
</svg>
