<svg id="Layer_1" data-name="Layer 1" xmlns="http://www.w3.org/2000/svg" width="479.23" height="160.93" viewBox="0 0 479.23 160.93">
  <defs>
    <style>
      .cls-1 {
        fill: #0a192b;
      }

      .cls-2 {
        fill: #2f7aea;
      }

      .cls-3 {
        fill: #fff;
      }

      .cls-4 {
        fill: #94a6c3;
      }

      .cls-5 {
        fill: #ffd923;
      }

      .cls-6 {
        fill: #d82122;
      }
    </style>
  </defs>
  <title>1inch-logo-freelogovectors.net</title>
  <g>
    <path class="cls-1" d="M199.54,204.82h19.34v77.41h19.34V185.46H218.88A19.4,19.4,0,0,0,199.54,204.82Z" transform="translate(-10.38 -169.54)"/>
    <path class="cls-1" d="M257.55,282.23h19.34V243.52a19.4,19.4,0,0,0-19.34-19.35Z" transform="translate(-10.38 -169.54)"/>
    <path class="cls-1" d="M296.23,224.17v58.06h19.34V243.52h19.34v19.36a19.4,19.4,0,0,0,19.34,19.35V243.52a19.4,19.4,0,0,0-19.34-19.35Z" transform="translate(-10.38 -169.54)"/>
    <path class="cls-1" d="M470.28,224.17H450.94V204.82a19.4,19.4,0,0,0-19.34-19.36v77.42H392.93V243.52h19.33V224.17H392.93a19.41,19.41,0,0,0-19.35,19.35v19.36a19.41,19.41,0,0,0,19.35,19.35h58V243.52h19.34v19.36a19.4,19.4,0,0,0,19.34,19.35V243.52A19.41,19.41,0,0,0,470.28,224.17Z" transform="translate(-10.38 -169.54)"/>
    <path class="cls-1" d="M257.55,204.82h19.34a19.4,19.4,0,0,0-19.34-19.36Z" transform="translate(-10.38 -169.54)"/>
    <path class="cls-2" d="M229.69,301.59V314.1h-1.77l-7-8.67v8.67h-2.08V301.59h1.77l7,8.7v-8.7ZM269,314.1h-7.51V301.59h7.33v2.05h-5.1v3.11h4.55v2.06h-4.55V312H269Zm31.83-10.46H305V314.1h2.22V303.64h4.1v-2.05H300.86Zm57.76-2.05h2.14l-3.62,12.51h-2.08L352,305.05l-3,9.05h-2.09l-3.78-12.51h2.49l2.55,8.91,2.82-8.91h2.21l2.89,8.93Zm35.81,1.85a6.3,6.3,0,0,0-1.84,4.6,6.16,6.16,0,0,0,1.86,4.66,7.07,7.07,0,0,0,9.44,0,6.69,6.69,0,0,0,0-9.3,7.07,7.07,0,0,0-9.46.07Zm1.72,7.74a4.31,4.31,0,0,1-1.21-3.14,4.4,4.4,0,0,1,1.19-3.17,4.35,4.35,0,0,1,6.06,0,4.34,4.34,0,0,1,1.23,3.17,4.48,4.48,0,0,1-1.15,3.14,4,4,0,0,1-3.1,1.25A4,4,0,0,1,396.15,311.18Zm43.68-1.73v4.68h-2.22V301.62c.62,0,1.3,0,2,0h1.81c3.06,0,4.59,1.28,4.59,3.86a3.65,3.65,0,0,1-.74,2.35,3.73,3.73,0,0,1-1.7,1.22l4,5.11h-2.7l-3.48-4.68Zm1.52-5.81-.29,0-.56,0h-.67v3.71h1.45a2.76,2.76,0,0,0,1.73-.51,1.69,1.69,0,0,0,.69-1.42C443.7,304.25,442.91,303.64,441.35,303.64Zm38,10.46h2.22v-6.46l5.18,6.46h2.82l-5.54-6.69,5.21-5.82h-2.68l-5,5.93v-5.93H479.4Z" transform="translate(-10.38 -169.54)"/>
    <path class="cls-3" d="M51,258.21l4.51-34L16.35,197,52.17,209.1l8.46-13,30.88-19.2,68.11,37.54,3.52,57.3L132.83,314l-24,3.67,12.41-22.72V273l-9-17.08-9.17-6.07L89,264.42V279.8L78,290.1l-14,1.7-6.2,3.52-10.15-3.24-4.23-15.24L51,266.11Z" transform="translate(-10.38 -169.54)"/>
    <path class="cls-4" d="M113.65,196.68A71,71,0,0,0,98,195.55S95.32,208,78.68,211.22C78.82,211.22,100.68,218.7,113.65,196.68Z" transform="translate(-10.38 -169.54)"/>
    <path class="cls-4" d="M120.42,309.3a54.27,54.27,0,0,0,18.89-27.81c.14-.42,1.41-1.12,2.26-1.69,1.41-.85,2.82-1.55,3.1-2.68a59.26,59.26,0,0,0,.85-10c0-1.27-1.27-2.54-2.54-3.81-1-.85-2-1.83-2-2.54a53.79,53.79,0,0,0-16.78-33.59l-1,1a52.55,52.55,0,0,1,16.35,32.74c.15,1.13,1.27,2.26,2.4,3.39,1,.84,2.12,2.11,2.12,2.68a57.22,57.22,0,0,1-.85,9.74c-.14.56-1.41,1.13-2.4,1.69-1.41.71-2.68,1.41-3,2.54a52.11,52.11,0,0,1-21.43,29.21c1.83-3.95,7.61-16.79,10.72-23.28L126.62,266l-17.91-17.36L98.56,250,87.42,268.09s5.22,6.63-2.11,14.39-12.84,9.32-12.84,9.32L67.26,289a54.59,54.59,0,0,1,7-6.91c4.09-3.39,8.18-3.67,8.18-7.34.14-7.62-8-5.5-8-5.5l-3,2.82-1.27,10.44L64,290.24l-.7-.14-10.15-2.25s6.2-3.25,7.19-6.92-2-15.24-2.12-15.95a15.51,15.51,0,0,1,4.23,6.5c2.26-6.21,5.22-12.14,6.07-12.71s12.26-6.63,12.26-6.63l-3.8,10,2.82-1.55L86.57,244s6.63-3.25,11.57-3.25c8.88-.14,22-11,16.07-30.48,1.69.7,31,15.38,36.1,44.17C154.12,276.56,141.57,297.3,120.42,309.3Z" transform="translate(-10.38 -169.54)"/>
    <path class="cls-1" d="M86.86,199.79c3.24-3.81,2-9.46,2-9.46l-9.45,14C79.24,204.3,82.77,204.44,86.86,199.79Z" transform="translate(-10.38 -169.54)"/>
    <path class="cls-1" d="M55.13,276.13l1.13-5.64s-4.66,8.18-5.08,9.31.28,3.53,2.12,3.39,4.09-2.82,4.09-4.8A2,2,0,0,0,55.13,276.13Z" transform="translate(-10.38 -169.54)"/>
    <path class="cls-1" d="M138.89,186.38s7.05.28,14.38,1.13c-16.5-13-32.15-16.79-44.84-16.79-17.48,0-29.33,7.19-30,7.62l5.5-8.75s-22-2.12-29.76,21.16a119.78,119.78,0,0,1-3.8-12.13s-11.43,10-6.07,26.67c-13.11-4.8-31.87-11.43-32.57-11.57-1-.14-1.27.28-1.27.28s-.28.42.56,1.13c1.55,1.27,31.17,23.14,37.65,27.38-1.41,5.08-1.41,7.48,0,9.88,2,3.24,2.12,4.93,1.84,7.33s-2.82,23.15-3.39,25.69-6.48,11.57-6.2,14.25,4,14.11,7.19,15.38c2.4.85,8.32,2.68,12.27,2.68a5,5,0,0,0,3.24-.84c2.4-2.12,3.1-2.54,4.79-2.54h.43c.7,0,1.55.14,2.54.14,2.25,0,5.21-.43,7.33-2.4,3.1-3.11,8.46-7.34,10.15-9.32a13.12,13.12,0,0,0,2.68-10c-.42-3.39,1.41-6.35,3.53-9.32,2.67-3.53,7.61-9.88,7.61-9.88a38.65,38.65,0,0,1,15.79,30.91c0,22-19.17,39.79-42.86,39.79A45.24,45.24,0,0,1,64.86,323a82.85,82.85,0,0,0,27.5,5.08c15.93,0,24.39-5.78,24.39-5.78a73.24,73.24,0,0,1-7.75,8.18h.14c26.37-3.67,39.2-25.4,39.2-25.4s-1,7.06-2.26,11.86c35.11-26.39,29.19-59.42,29-60.54.28.42,3.81,4.65,5.64,6.91C186.41,205.15,138.89,186.38,138.89,186.38Zm-54,92.86c-.56.7-3,2.82-4.65,4.37s-3.53,3.11-4.94,4.52c-.56.56-1.69.84-3.38.84H67.68c2.11-2.82,8.32-9.31,10.43-10.72,2.54-1.69,3.81-3.39,2.26-6.35s-5.64-2.26-5.64-2.26a14.05,14.05,0,0,1,4.51-1c-2.68-.7-6.06,0-7.61,1.56s-1.41,7.05-2.12,10.58-3.1,5.5-6.77,8.89c-2,1.83-3.38,2.4-4.51,2.4A47.7,47.7,0,0,1,51,290.24c-1.41-1.83-3.52-7.9-4.09-10.44a60.61,60.61,0,0,1,3-6.07c1.69-3.24,2.68-5.08,3-6.77.57-2.4,2.4-17.22,3.11-23.43,1.83,2.4,4.37,6.35,3.8,8.89,4.09-5.78,1.13-11.43-.28-13.68A15.49,15.49,0,0,1,58,227.16c1.41-4.79,6.49-18.06,6.49-18.06s1.69,3,4.09,2.4,21.71-29.64,21.71-29.64,5.22,11.43-.28,19.76-11.14,9.88-11.14,9.88a21.12,21.12,0,0,0,15-3.81c3,6.91,5.78,14.11,5.92,15.1-.42,1-6.06,14.53-6.63,15.38a14.08,14.08,0,0,1-3.66,1.13A19.57,19.57,0,0,0,85,240.85c-1,.85-5.5,13.27-7.61,19.34a11.6,11.6,0,0,0-6.91,4.93c1-.7,4.09-1.12,6.35-1.41,2-.14,8,3.11,9.58,9.18v.28A8.92,8.92,0,0,1,84.88,279.24Zm-13.25,1.69C72.9,279.1,72.76,276,72.9,275s.42-2.82,1.55-3.1,3.81.14,3.81,2.12-2,2.25-3.39,3.52C73.88,278.53,71.91,280.65,71.63,280.93Zm56.26-27A67.17,67.17,0,0,0,129,235.49a51.77,51.77,0,0,1,9.87,25.4c.14,1.13,1.27,2.26,2.4,3.39,1,.84,2.11,2,2.11,2.68a57.2,57.2,0,0,1-.84,9.74c-.14.42-1.41,1.13-2.4,1.69-1.41.71-2.68,1.41-3,2.54a52.53,52.53,0,0,1-18.62,27.24C131.7,294.48,138,271.9,127.89,254ZM119,309.44a54.42,54.42,0,0,0,19.32-28.09c.14-.42,1.41-1.13,2.25-1.69,1.41-.71,2.82-1.55,3.1-2.68a58.24,58.24,0,0,0,.85-10c0-1.27-1.27-2.54-2.54-3.81-.7-.85-1.83-1.84-1.83-2.54a55.2,55.2,0,0,0-11.56-28.08c-2.82-16.94-14.1-22.16-14.39-22.3.29.42,7.62,11,2.54,23.43S98.14,244.24,97,244.38s-5.5,5.64-11,16.09A15.53,15.53,0,0,0,79,260C81.5,253,85.31,243,86,242.12a24,24,0,0,1,3.81-1.27c2.68-.7,4-1.13,4.37-1.69s1.69-3.67,3.1-7.06a33.68,33.68,0,0,0,4.8-.42,53.64,53.64,0,0,0,3-8c0-.71-5.5-14.4-7.62-19.62a33.37,33.37,0,0,0,3-4.09A57.75,57.75,0,0,1,119,309.44Z" transform="translate(-10.38 -169.54)"/>
    <path class="cls-1" d="M81.5,233.23a6.17,6.17,0,0,0-3.67-9.88c1.27-3,3.1-8.89,3.1-8.89s-14.38,22.58-15.65,23S62.74,233,62.74,233c-2.67,10.3,4.52,11.71,5.36,8.47C72.05,240.43,78.82,236.2,81.5,233.23Z" transform="translate(-10.38 -169.54)"/>
    <path class="cls-5" d="M69.23,238.74l7.33-12.56s4.23,2.11,2.12,5.5C76,235.63,69.23,238.74,69.23,238.74Z" transform="translate(-10.38 -169.54)"/>
    <path class="cls-6" d="M159.9,296.88a81,81,0,0,1-7.33,8.61c18.19-35,.84-67,.14-68.31,1.27,1.27,2.54,2.68,3.66,3.95C170.33,256.66,172,279.94,159.9,296.88Z" transform="translate(-10.38 -169.54)"/>
    <path class="cls-6" d="M176.82,251.86c-6.34-17.08-15.37-31.61-35.25-44.74-19.18-12.7-39.77-11.71-40.89-11.57h-.29a11.86,11.86,0,0,1,2.12-.56,90.19,90.19,0,0,1,15.65-3.25,46.55,46.55,0,0,1,40.33,13.83l.28.28C170.48,218.27,176.54,233.8,176.82,251.86Z" transform="translate(-10.38 -169.54)"/>
    <path class="cls-6" d="M137.06,182c-21-4-34.55-2-44.28,1.69a39.5,39.5,0,0,0-2.12-5.22c-3,3.53-6.06,7.76-8,10.44a28.82,28.82,0,0,0-7.62,7.2,29.41,29.41,0,0,1,23.13-20.47,57.17,57.17,0,0,1,10.15-.84A66.17,66.17,0,0,1,137.06,182Z" transform="translate(-10.38 -169.54)"/>
    <path class="cls-6" d="M59.36,209.1c-16.5-.56-11-19.76-10.72-20.89C48.64,188.36,49.77,203.31,59.36,209.1Z" transform="translate(-10.38 -169.54)"/>
    <path class="cls-6" d="M75.58,174.53c-12.7,7.62-10.16,25.82-10.16,25.82C53.3,181.86,74.59,175,75.58,174.53Z" transform="translate(-10.38 -169.54)"/>
    <path class="cls-3" d="M54.71,214.18a2.83,2.83,0,0,1,.7,3.81c-.56,1-1.41.85-2.68.28-1.69-.84-11.84-6.77-21-12.84,10.44,3.67,21,7.62,22.7,8.47Z" transform="translate(-10.38 -169.54)"/>
  </g>
</svg>
