<svg width="778" height="175" viewBox="0 0 778 175" fill="none" xmlns="http://www.w3.org/2000/svg">
<path fill-rule="evenodd" clip-rule="evenodd" d="M570.818 92.9811H568.455L537.716 3.84058H501.711V7.52608L545.073 132.01H592.89L636.266 7.52608V3.84058H601.827L570.804 92.9811H570.818Z" fill="white"/>
<path d="M492.127 3.84058H456.325V131.996H492.127V3.84058Z" fill="white"/>
<path fill-rule="evenodd" clip-rule="evenodd" d="M742.619 3.82746H742.646L711.623 92.995H709.261L678.521 3.84096H642.517V7.55346L689.618 142.796H645.014V172.483H688.606C707.222 172.483 721.721 166.205 728.755 146.171C729.7 143.498 777.058 7.52646 777.058 7.52646V3.81396H742.619V3.82746Z" fill="white"/>
<path fill-rule="evenodd" clip-rule="evenodd" d="M273.872 0.357422C257.591 0.357422 242.376 8.64642 232.886 24.2254H230.685V3.97542H196.557V172.442H232.818V115.688H235.046C235.289 116.025 235.532 116.376 235.775 116.66C241.89 124.098 256.173 135.438 273.939 135.438C306.272 135.438 328.385 107.493 328.385 67.9114C328.385 28.3294 305.178 0.357422 273.872 0.357422ZM263.045 107.655C246.17 107.655 234.519 94.5064 234.519 67.9249C234.519 41.3434 246.17 28.1944 263.045 28.1944C279.92 28.1944 292.137 41.6269 292.137 67.9249C292.137 94.2229 280.203 107.655 263.045 107.655Z" fill="white"/>
<path fill-rule="evenodd" clip-rule="evenodd" d="M418.322 3.82715C401.514 3.82715 390.728 6.63515 384.423 24.2256H382.263V3.84065H330.356V33.2706H341.939C345.759 33.2706 347.636 34.6207 348.122 37.7527V62.2146H348.257V132.01H384.518V64.0237C384.518 46.4197 389.297 35.6331 406.901 35.6331H444.89V3.82715H418.335H418.322Z" fill="white"/>
<path d="M68.4424 135.398C105.716 135.398 135.942 105.172 135.942 67.8982C135.942 30.6247 105.716 0.398193 68.4424 0.398193C31.1689 0.398193 0.942383 30.6247 0.942383 67.8982C0.942383 105.172 31.1689 135.398 68.4424 135.398Z" fill="white"/>
<path d="M68.4418 174.642C93.9163 174.642 114.571 170.295 114.571 164.963C114.571 159.63 93.9298 155.283 68.4418 155.283C42.9538 155.283 22.3123 159.63 22.3123 164.963C22.3123 170.295 42.9538 174.642 68.4418 174.642Z" fill="white"/>
</svg>
