<?xml version="1.0" encoding="UTF-8"?>
<svg id="Layer_2" data-name="Layer 2" xmlns="http://www.w3.org/2000/svg" viewBox="0 0 633.84 295.34">
  <defs>
    <style>
      .cls-1 {
        fill: #141414;
      }

      .cls-1, .cls-2, .cls-3, .cls-4 {
        stroke-width: 0px;
      }

      .cls-2 {
        fill: #323232;
      }

      .cls-3 {
        fill: #ff6c2d;
      }

      .cls-4 {
        fill: #ffa534;
      }
    </style>
  </defs>
  <g id="EOS_Network_Logo_Black" data-name="EOS Network Logo Black">
    <g id="EOS-Network_hero_Colour_B_RGB">
      <g>
        <polygon class="cls-4" points="51.16 132.91 51.16 191.99 25.58 206.74 25.58 118.14 51.16 132.91"/>
        <polygon class="cls-4" points="255.79 73.84 255.79 221.51 230.21 236.28 230.2 118.14 204.63 132.9 204.63 251.05 127.89 295.34 127.89 147.68 153.47 132.91 153.47 251.05 179.05 236.28 179.05 118.14 255.79 73.84"/>
        <polyline class="cls-4" points="76.74 59.06 51.16 73.83 76.74 88.6 76.74 59.06"/>
        <polyline class="cls-4" points="127.89 29.53 102.31 44.3 127.89 59.06 127.89 29.53"/>
        <polygon class="cls-2" points="255.79 73.84 230.21 88.6 127.89 29.53 102.31 44.3 102.31 44.31 127.89 59.06 204.63 103.37 179.06 118.14 179.05 118.14 179.05 118.13 76.74 59.06 51.16 73.83 153.47 132.91 127.89 147.68 0 73.83 127.88 0 127.89 0 255.79 73.84"/>
        <polygon class="cls-2" points="102.31 221.51 102.31 251.05 25.58 206.74 51.16 191.99 102.31 221.51"/>
        <polyline class="cls-2" points="153.47 251.05 179.05 236.28 153.47 221.51 153.47 251.05"/>
        <path class="cls-3" d="m0,73.83v147.68l127.89,73.83v-147.68L0,73.83Zm102.31,177.22l-76.74-44.31v-88.6l76.74,44.31v88.6Z"/>
        <polygon class="cls-3" points="230.21 236.28 204.63 221.51 204.63 132.9 230.2 118.14 230.21 236.28"/>
        <polygon class="cls-3" points="230.21 88.6 204.63 103.37 127.89 59.06 127.89 29.53 230.21 88.6"/>
        <polygon class="cls-3" points="76.74 59.06 76.74 88.6 153.47 132.91 153.47 221.51 179.05 236.28 179.05 118.14 76.74 59.06"/>
      </g>
      <g>
        <path class="cls-1" d="m306.75,74.46h40.23v9.86h-28.9v14.71h23.19v9.86h-23.19v16.18h29.85v9.95h-41.18v-60.56Z"/>
        <path class="cls-1" d="m351.4,104.74c0-17.82,12.98-30.97,30.63-30.97s30.54,13.15,30.54,30.97-13.06,30.97-30.54,30.97-30.63-13.15-30.63-30.97Zm30.54,21.02c11.07,0,19.12-8.91,19.12-21.02s-8.05-21.11-19.12-21.11-19.03,9-19.03,21.11,7.96,21.02,19.03,21.02Z"/>
        <path class="cls-1" d="m417.67,114.69h10.99c.61,6.75,5.1,11.07,12.37,11.07,6.49,0,10.99-2.6,10.99-7.96,0-12.98-32.53-3.98-32.53-27.17,0-9.95,8.56-16.87,20.85-16.87s21.46,7.35,21.98,18.69h-10.9c-.52-5.28-4.67-8.82-11.07-8.82-5.97,0-9.69,2.77-9.69,7.01,0,13.41,32.96,3.37,32.96,26.99,0,11.25-9.26,18.08-22.58,18.08s-22.75-8.31-23.36-21.02Z"/>
        <path class="cls-1" d="m306.75,161.35h12.29l26.3,42.74v-42.74h11.33v60.56h-12.29l-26.3-42.65v42.65h-11.33v-60.56Z"/>
        <path class="cls-1" d="m363.15,199.94c0-11.51,7.09-22.32,21.37-22.32s21.2,10.64,21.2,21.02c0,1.47-.09,2.77-.17,3.63h-32.18c.78,7.01,5.28,11.51,12.03,11.51,5.45,0,9-2.25,10.12-6.4h10.38c-1.64,9.26-9.78,15.23-20.5,15.23-14.28,0-22.23-11.25-22.23-22.67Zm31.92-4.67c-.43-5.54-4.24-9.69-10.56-9.69-5.97,0-9.78,3.11-10.9,9.69h21.46Z"/>
        <path class="cls-1" d="m428.12,165.16v13.15h12.11v8.91h-12.11v19.03c0,4.41,2.34,6.66,6.32,6.66h5.8v9h-7.01c-9.52,0-15.74-5.54-15.74-15.23v-19.47h-8.56v-8.91h8.56v-13.15h10.64Z"/>
        <path class="cls-1" d="m442.57,178.31h10.64l8.05,29.15,8.56-29.15h9.78l8.48,29.15,8.05-29.15h10.64l-13.93,43.6h-9.43l-8.74-29.33-8.74,29.33h-9.43l-13.93-43.6Z"/>
        <path class="cls-1" d="m507.97,200.11c0-12.98,9.52-22.49,22.84-22.49s22.75,9.52,22.75,22.49-9.52,22.49-22.75,22.49-22.84-9.52-22.84-22.49Zm22.84,13.32c7.18,0,12.03-5.45,12.03-13.32s-4.85-13.32-12.03-13.32-12.11,5.45-12.11,13.32,4.84,13.32,12.11,13.32Z"/>
        <path class="cls-1" d="m569.74,201.32v20.59h-10.64v-43.6h10.64v7.7c2.16-5.54,5.54-7.7,11.16-7.7h5.1v8.91h-6.83c-6.83,0-9.43,5.8-9.43,14.1Z"/>
        <path class="cls-1" d="m591.53,159.62h10.73v34.52l16.61-15.83h13.5l-17.74,17.04,19.21,26.56h-12.8l-13.67-19.47-5.1,4.93v14.53h-10.73v-62.29Z"/>
      </g>
    </g>
  </g>
</svg>